<svg id="Capa_1" enable-background="new 0 0 512 512" height="512" viewBox="0 0 512 512" width="512" xmlns="http://www.w3.org/2000/svg"><g><path d="m158.5 87.133c7.178-4.146 9.639-13.315 5.493-20.493l-15-25.986c-4.16-7.192-13.374-9.668-20.493-5.493-7.178 4.146-9.639 13.315-5.493 20.493l15 25.986c4.191 7.236 13.394 9.593 20.493 5.493z" fill="#741a14"/><path d="m66.64 348.007-25.986 15c-7.178 4.146-9.639 13.315-5.493 20.493 4.191 7.236 13.394 9.593 20.493 5.493l25.986-15c7.178-4.146 9.639-13.315 5.493-20.493-4.16-7.163-13.345-9.624-20.493-5.493z" fill="#741a14"/><path d="m445.36 163.993 25.986-15c7.178-4.146 9.639-13.315 5.493-20.493s-13.359-9.639-20.493-5.493l-25.986 15c-7.178 4.146-9.639 13.315-5.493 20.493 4.191 7.236 13.394 9.593 20.493 5.493z" fill="#741a14"/><path d="m430.36 373.993 25.986 15c7.108 4.105 16.307 1.732 20.493-5.493 4.146-7.178 1.685-16.348-5.493-20.493l-25.986-15c-7.163-4.131-16.348-1.67-20.493 5.493-4.145 7.178-1.684 16.348 5.493 20.493z" fill="#741a14"/><path d="m81.64 138.007-25.986-15c-7.163-4.146-16.348-1.685-20.493 5.493s-1.685 16.348 5.493 20.493l25.986 15c7.108 4.105 16.307 1.732 20.493-5.493 4.145-7.178 1.684-16.348-5.493-20.493z" fill="#741a14"/><path d="m373.993 81.64 15-25.986c4.146-7.178 1.685-16.348-5.493-20.493-7.178-4.175-16.348-1.699-20.493 5.493l-15 25.986c-4.146 7.178-1.685 16.348 5.493 20.493 7.108 4.105 16.307 1.732 20.493-5.493z" fill="#741a14"/><path d="m271 46v-31c0-8.291-6.709-15-15-15s-15 6.709-15 15v31c0 8.291 6.709 15 15 15s15-6.709 15-15z" fill="#741a14"/><path d="m15 271h31c8.291 0 15-6.709 15-15s-6.709-15-15-15h-31c-8.291 0-15 6.709-15 15s6.709 15 15 15z" fill="#741a14"/><path d="m497 241h-31c-8.291 0-15 6.709-15 15s6.709 15 15 15h31c8.291 0 15-6.709 15-15s-6.709-15-15-15z" fill="#741a14"/><path d="m271 259.545-15-30-15 30v11.455h30z" fill="#741a14"/><path d="m241 301h30v60h-30z" fill="#741a14"/><path d="m93.505 226.894c-9.434 54.873 8.73 110.317 48.618 148.33 24.712 23.54 38.877 57.63 38.877 91.776 0 24.814 20.186 45 45 45h60c24.814 0 45-20.186 45-45 0-34.146 14.165-68.236 38.862-91.762 32.974-31.406 51.138-73.755 51.138-119.238 0-90.648-72.953-164.442-164.366-164.94-84.419-.457-150.204 60.621-163.129 135.834zm117.495 29.106c0-2.329.542-4.629 1.582-6.709l30-60c5.098-10.166 21.738-10.166 26.836 0l30 60c1.04 2.08 1.582 4.38 1.582 6.709v120c0 8.291-6.709 15-15 15h-60c-8.291 0-15-6.709-15-15z" fill="#741a14"/></g></svg>