<svg id="Layer_1" enable-background="new 0 0 512 512" height="512" viewBox="0 0 512 512" width="512" xmlns="http://www.w3.org/2000/svg"><path d="m497 241.334h-18.927c-3.485-53.925-26.151-104.139-64.71-142.697-38.478-38.479-88.565-61.132-142.363-64.689v-18.948c0-8.284-6.716-15-15-15s-15 6.716-15 15v18.948c-53.798 3.557-103.886 26.209-142.364 64.688-38.558 38.558-61.225 88.772-64.71 142.697h-18.926c-8.284 0-15 6.716-15 15s6.716 15 15 15h18.971c3.628 53.672 26.267 103.631 64.665 142.029 38.478 38.479 88.565 61.132 142.364 64.688v18.95c0 8.284 6.716 15 15 15s15-6.716 15-15v-18.948c53.798-3.557 103.885-26.209 142.363-64.688 38.399-38.398 61.038-88.358 64.666-142.029h18.971c8.284 0 15-6.716 15-15s-6.716-15.001-15-15.001zm-226 206.633v-17.875c0-8.284-6.716-15-15-15s-15 6.716-15 15v17.875c-94.125-7.287-169.493-82.552-176.94-176.633h17.849c8.284 0 15-6.716 15-15s-6.716-15-15-15h-17.902c7.143-94.392 82.645-169.997 176.993-177.301v17.875c0 8.284 6.716 15 15 15s15-6.716 15-15v-17.875c94.348 7.304 169.85 82.909 176.993 177.301h-17.901c-8.284 0-15 6.716-15 15s6.716 15 15 15h17.849c-7.448 94.081-82.816 169.346-176.941 176.633z" fill="#741a14"/><path d="m392.107 201.724-130.8-47.896c-3.33-1.221-6.985-1.221-10.315 0l-130.802 47.896c-5.911 2.164-9.842 7.79-9.842 14.085s3.931 11.921 9.842 14.085l130.801 47.896c1.665.61 3.412.915 5.158.915s3.493-.305 5.158-.915l130.801-47.896c5.911-2.164 9.842-7.79 9.842-14.085s-3.93-11.921-9.843-14.085z" fill="#741a14"/><path d="m255.519 308.707c-5.3 0-10.51-.93-15.48-2.75l-70.22-25.71v31.26c0 5.13 2.62 9.91 6.95 12.66 23.58 14.99 50.81 22.92 78.75 22.92 27.95 0 55.18-7.93 78.76-22.92 4.33-2.75 6.95-7.53 6.95-12.66v-31.27l-70.23 25.72c-4.97 1.82-10.18 2.75-15.48 2.75z" fill="#741a14"/></svg>