<svg id="Layer_1" enable-background="new 0 0 512 512" height="512" viewBox="0 0 512 512" width="512" xmlns="http://www.w3.org/2000/svg"><path d="m408.866 354.4h-99.629v-18.828c36.189-18.371 60.34-54.913 60.34-97.915v-113.527l75.57-27.672c5.911-2.165 9.842-7.79 9.842-14.085s-3.931-11.921-9.842-14.085l-183.989-67.373c-3.33-1.22-6.985-1.22-10.315 0l-183.99 67.372c-5.912 2.165-9.842 7.79-9.842 14.085s3.931 11.921 9.842 14.085l19.049 6.975v80.975c0 8.284 6.716 15 15 15s15-6.716 15-15v-69.99l24.757 9.066v114.173c0 42.973 24.148 79.494 60.34 97.877v18.867h-97.866c-56.867 0-103.133 46.142-103.133 102.859v9.774c0 24.795 20.214 44.967 45.062 44.967h421.877c24.846 0 45.061-20.172 45.061-44.968v-9.774c0-56.716-46.266-102.858-103.134-102.858zm-152.866-323.426 140.365 51.398-140.365 51.399-140.365-51.399zm-5.158 132.856c1.665.61 3.412.915 5.158.915s3.493-.305 5.158-.915l78.419-28.715v31.207c-25.707 14.686-54.737 22.412-84.458 22.412-29.722 0-58.752-7.727-84.459-22.412v-31.853zm-80.182 73.827v-37.589c26.361 12.267 55.123 18.666 84.459 18.666s58.098-6.4 84.458-18.666v37.589c0 45.204-37.067 80.613-84.388 80.613-47.399 0-84.529-35.409-84.529-80.613zm84.53 110.613c8.273 0 16.315-.808 24.048-2.349v13.866c0 13.231-10.82 23.996-24.119 23.996s-24.119-10.765-24.119-23.997v-13.888c7.777 1.556 15.866 2.372 24.19 2.372zm-225.19 118.762v-9.774c0-40.174 32.808-72.858 73.134-72.858h103.823c6.755 13.105 18.728 23.112 33.162 27.273v70.327h-195.057c-8.305 0-15.062-6.714-15.062-14.968zm452 0c0 8.253-6.757 14.968-15.062 14.968h-196.82v-70.328c14.434-4.16 26.407-14.168 33.162-27.273h105.586c40.326 0 73.134 32.684 73.134 72.858z"/></svg>