<svg id="Layer_1" enable-background="new 0 0 512 512" height="512" viewBox="0 0 512 512" width="512" xmlns="http://www.w3.org/2000/svg"><path d="m373.501 173.133-3.807-23.299c-2.695-19.049-16.399-35.599-38.619-46.608-20.016-9.92-45.973-15.159-75.075-15.159-28.661 0-54.668 5.56-75.225 16.079-22.02 11.27-35.674 27.459-38.459 45.598l-3.827 23.379c31.276-27.749 72.44-44.618 117.481-44.628h.06c45.041.01 86.205 16.889 117.471 44.638z"/><path d="m474.113 111.241-196.018-105.648c-13.835-7.457-30.355-7.457-44.191 0l-196.017 105.648c-4.859 2.618-7.887 7.686-7.887 13.198s3.028 10.58 7.887 13.198l70.736 38.125 5.028-30.721c4.33-27.843 23.654-51.844 54.431-67.595 24.778-12.681 55.531-19.384 88.935-19.384 33.712 0 64.295 6.327 88.443 18.297 31.226 15.478 50.733 39.947 54.964 68.932l4.817 29.466 68.871-37.12c4.859-2.619 7.887-7.686 7.887-13.198.001-5.512-3.027-10.58-7.886-13.198z"/><path d="m256.034 158.493c-.021 0-.041 0-.062 0-97.632.011-177.058 79.297-177.058 176.753 0 97.462 79.437 176.754 177.078 176.754h.008.003c97.636-.006 177.068-79.295 177.068-176.754 0-97.448-79.415-176.73-177.037-176.753zm-39.125 35.262c-10.187 12.669-21.535 28.702-31.404 47.254h-42.136c18.906-22.475 44.426-39.232 73.54-47.254zm-93.094 77.254h48.183c-5.67 15.389-9.812 31.914-11.371 49.238h-50.897c1.788-17.498 6.668-34.095 14.085-49.238zm0 128.475c-7.417-15.143-12.297-31.741-14.085-49.238h50.896c1.559 17.324 5.7 33.849 11.371 49.238zm19.554 29.999h42.136c9.869 18.552 21.217 34.585 31.404 47.254-29.114-8.021-54.634-24.778-73.54-47.254zm97.596 29.111c-6.631-8.208-13.858-18.026-20.732-29.111h20.732zm0-59.11h-36.559c-6.627-15.24-11.669-31.84-13.575-49.238h50.134zm0-79.237h-50.128c1.916-17.38 6.979-33.984 13.628-49.238h36.501v49.238zm0-79.237h-20.651c6.849-11.041 14.046-20.832 20.651-29.027zm127.651 0h-42.121c-9.868-18.55-21.214-34.58-31.4-47.249 29.106 8.024 54.619 24.778 73.521 47.249zm-97.597-29.13c6.635 8.212 13.868 18.037 20.747 29.13h-20.747zm0 59.129h36.575c6.627 15.24 11.669 31.839 13.575 49.238h-50.149v-49.238zm0 79.237h50.144c-1.916 17.38-6.978 33.984-13.627 49.238h-36.517zm0 108.283v-29.046h20.667c-6.854 11.05-14.057 20.847-20.667 29.046zm24.076 18.203c10.186-12.669 21.532-28.699 31.4-47.249h42.121c-18.902 22.471-44.415 39.225-73.521 47.249zm93.075-77.248h-48.167c5.67-15.389 9.812-31.914 11.371-49.238h50.881c-1.788 17.497-6.668 34.095-14.085 49.238zm14.084-79.237h-50.881c-1.559-17.324-5.701-33.849-11.371-49.238h48.168c7.417 15.143 12.297 31.74 14.084 49.238z"/></svg>