<svg id="Layer_1" enable-background="new 0 0 510 510" height="512" viewBox="0 0 510 510" width="512" xmlns="http://www.w3.org/2000/svg"><g><g><path d="m165 270h45v30h-45z"/><path d="m300 270h45v30h-45z"/><path d="m385.075 177.144c-2.774-11.093-13.45-14.999-25.363-12.429-75.093 18.051-85.503 26.697-195.579-5.959-18.651-3.689-36.743 7.767-41.334 26.289l-17.799 71.787v118.168c0 74.44 60.561 135 135 135h30c74.44 0 135-60.56 135-135v-118.153zm-115.075 272.856h-30c-33.084 0-60-26.916-60-60h30c0 16.542 13.458 30 30 30h30c16.542 0 30-13.458 30-30h30c0 33.084-26.916 60-60 60zm105-120h-105v-30h-30v30h-105v-90h105v30h30v-30h105z"/></g><g><path d="m51 255c-19.883 0-36 20.147-36 45s16.117 45 36 45c9.223 0 17.631-4.34 24-11.468v-66.472c-6.428-7.478-14.526-12.06-24-12.06z"/><path d="m464.709 87.058-.568-2.839-1.582-2.423c-2.184-3.34-55.023-81.796-192.559-81.796-84.112 0-150 39.532-150 90 0 15.048 5.861 29.123 16.314 41.469 41.82-14.045 59.584 18.531 133.686 18.531 10.871 0 21.749-.318 32.113-2.288 11.834-2.249 46.9-11.041 46.9-11.041 6.56-1.692 11.883-3.524 18.14-3.524 21.936 0 41.553 14.842 47.026 36.716l15.733 62.943c6.545-3.731 13.603-6.169 20.94-7.21 18.186-43.547 23.134-92.147 13.857-138.538z"/><path d="m106.67 37.814c-58.78 26.345-85.311 95.102-60.031 154.088l14.577 34.013c6.585 1.179 12.919 3.501 18.837 6.871l13.627-54.96c2.927-11.808 8.916-22.176 16.988-30.352-26.784-34.254-26.946-76.386-3.998-109.66z"/><path d="m459 255c-9.475 0-17.572 4.582-24 12.06v66.473c6.369 7.127 14.778 11.467 24 11.467 19.883 0 36-20.147 36-45s-16.117-45-36-45z"/></g></g></svg>