<?xml version="1.0" encoding="iso-8859-1"?>
<!-- Generator: Adobe Illustrator 19.0.0, SVG Export Plug-In . SVG Version: 6.00 Build 0)  -->
<svg version="1.1" id="Layer_1" xmlns="http://www.w3.org/2000/svg" xmlns:xlink="http://www.w3.org/1999/xlink" x="0px" y="0px"
	 viewBox="0 0 512.008 512.008" style="enable-background:new 0 0 512.008 512.008;" xml:space="preserve">
<g>
	<g>
		<path d="M509.998,284.71c-24.286-28.766-47.326-40.627-68.557-35.345c-22.869,5.743-41.813,31.522-56.533,76.834
			C369.36,196.287,321.121,25.578,175.047,25.578c-1.51,0-3.029,0.017-4.548,0.051c-4.676,0.111-8.397,3.959-8.337,8.636
			c0.06,4.668,3.857,8.431,8.533,8.431c14.353,0,26.368,5.419,36.753,16.546c32.367,34.697,46.344,123.563,39.859,251.64
			C164.679,196.339,9.611,204.787,7.999,204.898c-4.668,0.299-8.226,4.301-7.987,8.969c0.256,4.676,4.574,8.329,8.883,8.073
			c0.273-0.043,26.795-0.794,54.758,26.018c29.09,27.887,63.778,90.419,63.778,229.939c0,4.71,3.814,8.533,8.533,8.533h333.372
			c2.432,0,4.753-1.041,6.366-2.85c1.621-1.818,2.398-4.241,2.108-6.656c-18.901-165.009,2.688-183.902,7.202-186.018
			c4.173-1.954,10.726,3.55,12.211,5.12c3.149,3.396,8.439,3.644,11.904,0.572C512.6,293.533,512.984,288.251,509.998,284.71z
			 M459.796,469.363H144.455c-1.109-112.282-24.311-190.891-68.992-233.728c-4.011-3.84-7.996-7.194-11.938-10.146
			c54.801,8.32,137.574,34.654,183.27,116.318c1.843,3.285,5.615,4.984,9.318,4.156c3.686-0.828,6.383-3.968,6.647-7.74
			c7.066-102.153,5.649-234.121-40.397-287.889c112.051,38.699,142.293,214.647,150.067,325.222c0.29,4.241,3.669,7.612,7.919,7.91
			c4.181,0.205,8.055-2.577,8.934-6.741c13.961-65.843,33.963-105.199,56.311-110.805c9.267-2.313,19.738,1.015,31.3,9.967
			C460.982,284.053,442.9,314.474,459.796,469.363z" fill="#659C35"/>
	</g>
</g>
<g>
</g>
<g>
</g>
<g>
</g>
<g>
</g>
<g>
</g>
<g>
</g>
<g>
</g>
<g>
</g>
<g>
</g>
<g>
</g>
<g>
</g>
<g>
</g>
<g>
</g>
<g>
</g>
<g>
</g>
</svg>
